<!-- Generated by IcoMoon.io -->
<svg version="1.1" xmlns="http://www.w3.org/2000/svg" width="32" height="32" viewBox="0 0 32 32">
<title>foot</title>
<path fill="#f56856" d="M24.421 16.842c0 7.209-4.147 13.053-9.263 13.053s-9.263-5.844-9.263-13.053c0-7.209 4.147-13.053 9.263-13.053s9.263 5.844 9.263 13.053z"></path>
<path fill="#fff" stroke="#f56856" stroke-linejoin="round" stroke-linecap="butt" stroke-miterlimit="4" stroke-width="0.8421" d="M16 1.263c-8.139 0-14.737 6.598-14.737 14.737s6.598 14.737 14.737 14.737c8.139 0 14.737-6.598 14.737-14.737v0c0-8.139-6.598-14.737-14.737-14.737v0zM19.51 10.787c0.172 0.107 0.284 0.295 0.284 0.51 0 0.117-0.033 0.226-0.091 0.318l0.001-0.002c-0.174 0.282-1.128 0.686-1.128 0.686s-0.064-1.036 0.112-1.318c0.108-0.17 0.296-0.282 0.509-0.282 0.116 0 0.224 0.033 0.316 0.090l-0.003-0.001zM17.501 9.571c0.128-0.209 0.356-0.346 0.615-0.346 0.397 0 0.72 0.322 0.72 0.72 0 0.136-0.038 0.263-0.103 0.371l0.002-0.003c-0.204 0.341-1.345 0.842-1.345 0.842s-0.094-1.242 0.112-1.583zM15.767 8.648c0.106-0.33 0.411-0.565 0.77-0.565 0.446 0 0.808 0.362 0.808 0.808 0 0.063-0.007 0.125-0.021 0.184l0.001-0.005c-0.114 0.429-1.19 1.322-1.19 1.322s-0.484-1.309-0.368-1.743zM13.134 8.029c0.149-0.464 0.577-0.794 1.082-0.794 0.627 0 1.135 0.508 1.135 1.135 0 0.088-0.010 0.174-0.029 0.256l0.001-0.008c-0.161 0.602-1.674 1.861-1.674 1.861s-0.679-1.844-0.515-2.451zM16.924 20.467c-0.878 4.884-2.807 4.669-3.579 4.16-0.64-0.421-1.232-1.806 0.776-4.413 0.893-1.154-0.358-2.547-1.558-4.084-0.46-0.558-0.74-1.281-0.74-2.069 0-1.328 0.794-2.471 1.933-2.98l0.021-0.008c1.474-0.724 3.824 0.531 4.743 2.581s-1.157 4.379-1.596 6.813zM20.042 13.192c-0.281 0.159-0.609 0.275-0.957 0.33l-0.017 0.002c0.048-0.367 0.156-0.7 0.314-1.002l-0.008 0.016c0.085-0.087 0.203-0.14 0.333-0.14 0.258 0 0.467 0.209 0.467 0.467 0 0.127-0.051 0.242-0.133 0.326l0-0z"></path>
</svg>
