<!-- Generated by IcoMoon.io -->
<svg version="1.1" xmlns="http://www.w3.org/2000/svg" width="32" height="32" viewBox="0 0 32 32">
<title>lock</title>
<path fill="#f56856" d="M24.842 16.421c0 7.209-4.147 13.053-9.263 13.053s-9.263-5.844-9.263-13.053c0-7.209 4.147-13.053 9.263-13.053s9.263 5.844 9.263 13.053z"></path>
<path fill="#fff" stroke="#f56856" stroke-linejoin="round" stroke-linecap="butt" stroke-miterlimit="4" stroke-width="0.8421" d="M16 17.128c-0 0-0.001 0-0.001 0-0.846 0-1.531 0.686-1.531 1.531 0 0.565 0.306 1.058 0.761 1.324l0.007 0.004v1.705h1.529v-1.705c0.462-0.269 0.768-0.763 0.768-1.328 0-0.846-0.686-1.531-1.531-1.531-0 0-0.001 0-0.001 0h0zM16 9.697c-1.29 0.002-2.335 1.047-2.336 2.337v2.484h4.674v-2.484c-0.001-1.29-1.047-2.336-2.338-2.337h-0zM16 1.263c-8.139 0-14.737 6.598-14.737 14.737s6.598 14.737 14.737 14.737c8.139 0 14.737-6.598 14.737-14.737v0c0-8.139-6.598-14.737-14.737-14.737v0zM20.528 23.575h-9.056c-0 0-0 0-0 0-0.956 0-1.731-0.775-1.731-1.73v-5.592c0-0.831 0.584-1.525 1.364-1.695l0.011-0.002v-2.522c0-2.697 2.187-4.884 4.884-4.884s4.884 2.187 4.884 4.884v2.522c0.791 0.172 1.375 0.866 1.376 1.697v5.592c-0 0.956-0.775 1.731-1.731 1.731-0 0-0.001 0-0.001 0h0z"></path>
</svg>
